<mxfile host="app.diagrams.net" modified="2023-12-05T16:45:24.354Z" agent="Mozilla/5.0 (Windows NT 10.0; Win64; x64) AppleWebKit/537.36 (KHTML, like Gecko) Chrome/119.0.0.0 Safari/537.36" etag="i5n0SzKpFsab7H20d3LF" version="22.1.5" type="github">
  <diagram name="Seite-1" id="0DVrrCH61ZPT9TPxcILy">
    <mxGraphModel dx="1434" dy="782" grid="1" gridSize="10" guides="1" tooltips="1" connect="1" arrows="1" fold="1" page="1" pageScale="1" pageWidth="1169" pageHeight="827" math="0" shadow="0">
      <root>
        <mxCell id="0" />
        <mxCell id="1" parent="0" />
        <mxCell id="xju300cJYV8iOVyrhgCJ-1" value="Unternehmer" style="shape=umlActor;verticalLabelPosition=bottom;verticalAlign=top;html=1;" vertex="1" parent="1">
          <mxGeometry x="120" y="120" width="30" height="60" as="geometry" />
        </mxCell>
        <mxCell id="xju300cJYV8iOVyrhgCJ-3" value="" style="swimlane;startSize=0;" vertex="1" parent="1">
          <mxGeometry x="200" y="80" width="400" height="560" as="geometry" />
        </mxCell>
        <mxCell id="xju300cJYV8iOVyrhgCJ-4" value="Registrieren" style="ellipse;whiteSpace=wrap;html=1;" vertex="1" parent="xju300cJYV8iOVyrhgCJ-3">
          <mxGeometry x="40" y="40" width="140" height="70" as="geometry" />
        </mxCell>
        <mxCell id="xju300cJYV8iOVyrhgCJ-5" value="Einloggen" style="ellipse;whiteSpace=wrap;html=1;" vertex="1" parent="xju300cJYV8iOVyrhgCJ-3">
          <mxGeometry x="220" y="40" width="140" height="70" as="geometry" />
        </mxCell>
        <mxCell id="xju300cJYV8iOVyrhgCJ-7" value="Bankeinzug&lt;br&gt;ausfÃ¼hren" style="ellipse;whiteSpace=wrap;html=1;" vertex="1" parent="xju300cJYV8iOVyrhgCJ-3">
          <mxGeometry x="40" y="320" width="140" height="70" as="geometry" />
        </mxCell>
        <mxCell id="xju300cJYV8iOVyrhgCJ-8" value="Projekt auf Basis&lt;br&gt;von Skills planen" style="ellipse;whiteSpace=wrap;html=1;" vertex="1" parent="xju300cJYV8iOVyrhgCJ-3">
          <mxGeometry x="220" y="160" width="140" height="70" as="geometry" />
        </mxCell>
        <mxCell id="xju300cJYV8iOVyrhgCJ-9" value="Bankdaten&lt;br&gt;ermitteln" style="ellipse;whiteSpace=wrap;html=1;" vertex="1" parent="xju300cJYV8iOVyrhgCJ-3">
          <mxGeometry x="40" y="210" width="140" height="70" as="geometry" />
        </mxCell>
        <mxCell id="xju300cJYV8iOVyrhgCJ-13" style="orthogonalLoop=1;jettySize=auto;html=1;exitX=0;exitY=0;exitDx=0;exitDy=0;rounded=0;strokeColor=default;dashed=1;" edge="1" parent="xju300cJYV8iOVyrhgCJ-3" source="xju300cJYV8iOVyrhgCJ-6" target="xju300cJYV8iOVyrhgCJ-3">
          <mxGeometry relative="1" as="geometry" />
        </mxCell>
        <mxCell id="xju300cJYV8iOVyrhgCJ-6" value="Projektausschreibung&lt;br&gt;aufgeben" style="ellipse;whiteSpace=wrap;html=1;" vertex="1" parent="xju300cJYV8iOVyrhgCJ-3">
          <mxGeometry x="220" y="270" width="140" height="70" as="geometry" />
        </mxCell>
        <mxCell id="xju300cJYV8iOVyrhgCJ-10" value="Registrierter&lt;br&gt;Unternehmer" style="shape=umlActor;verticalLabelPosition=bottom;verticalAlign=top;html=1;" vertex="1" parent="1">
          <mxGeometry x="650" y="120" width="30" height="60" as="geometry" />
        </mxCell>
      </root>
    </mxGraphModel>
  </diagram>
</mxfile>
